<?xml version="1.0" standalone="no"?>
<!DOCTYPE svg PUBLIC "-//W3C//DTD SVG 20010904//EN"
 "http://www.w3.org/TR/2001/REC-SVG-20010904/DTD/svg10.dtd">
<svg version="1.0" xmlns="http://www.w3.org/2000/svg"
 width="116.000000pt" height="116.000000pt" viewBox="0 0 116.000000 116.000000"
 preserveAspectRatio="xMidYMid meet">
<metadata>
Created by potrace 1.14, written by Peter Selinger 2001-2017
</metadata>
<g transform="translate(0.000000,116.000000) scale(0.100000,-0.100000)"
fill="#000000" stroke="none">
<path d="M415 916 c-15 -63 -15 -73 5 -94 29 -30 50 -28 103 13 37 28 45 40
42 62 -4 38 -30 52 -90 51 -51 -2 -54 -3 -60 -32z m95 -63 c0 -19 -6 -16 -24
12 -17 25 -16 25 4 13 11 -7 20 -18 20 -25z"/>
<path d="M599 929 c-23 -23 -19 -67 7 -82 10 -6 13 -16 8 -30 -6 -19 -5 -20 8
-9 12 10 21 10 42 1 21 -10 31 -10 50 1 29 15 37 47 23 99 -10 38 -11 38 -64
40 -42 1 -58 -4 -74 -20z m59 -69 c-12 -16 -23 -30 -25 -30 -8 0 -1 18 15 38
26 33 36 26 10 -8z"/>
<path d="M520 824 c0 -3 5 -15 11 -27 12 -22 11 -22 -9 -4 -13 12 -22 15 -27
7 -4 -6 8 -17 27 -26 29 -13 30 -14 6 -9 -16 3 -28 1 -28 -4 0 -4 14 -11 30
-14 24 -5 30 -12 30 -32 0 -16 6 -25 15 -25 9 0 15 9 15 25 0 20 6 27 30 32
38 7 40 25 3 18 l-28 -5 28 12 c15 7 27 18 27 25 0 14 -12 17 -24 6 -4 -5 -12
-8 -16 -8 -5 0 -15 -8 -23 -19 -13 -18 -15 -17 -36 18 -21 34 -31 43 -31 30z"/>
<path d="M450 771 c0 -11 9 -22 19 -26 13 -4 17 -12 14 -26 -5 -17 -2 -20 13
-17 26 5 30 35 6 42 -11 4 -19 14 -18 23 0 10 -7 19 -16 21 -13 2 -18 -3 -18
-17z"/>
<path d="M660 771 c0 -11 4 -22 9 -25 12 -8 34 21 26 34 -11 17 -35 11 -35 -9z"/>
<path d="M641 740 c-17 -10 -7 -40 14 -40 16 0 20 17 7 37 -5 7 -13 9 -21 3z"/>
<path d="M432 723 c2 -10 10 -18 18 -18 8 0 16 8 18 18 2 12 -3 17 -18 17 -15
0 -20 -5 -18 -17z"/>
<path d="M682 723 c2 -10 10 -18 18 -18 8 0 16 8 18 18 2 12 -3 17 -18 17 -15
0 -20 -5 -18 -17z"/>
<path d="M411 671 c-10 -6 -10 -10 -2 -16 8 -4 9 -11 3 -18 -5 -7 -9 -23 -7
-37 2 -23 4 -24 84 -25 46 0 86 2 91 5 4 3 10 16 13 30 3 21 5 19 6 -8 1 -22
5 -32 14 -29 6 2 11 16 10 31 -2 24 0 26 13 15 8 -7 13 -18 10 -26 -3 -7 -4
-13 -2 -13 3 0 12 -3 22 -7 13 -5 16 -3 11 9 -3 9 1 24 8 35 13 17 14 17 15 1
0 -10 -5 -18 -11 -18 -8 0 -8 -5 1 -15 10 -12 16 -13 26 -4 11 9 14 8 14 0 0
-7 4 -10 9 -6 13 7 7 68 -7 73 -6 2 -8 11 -5 19 5 13 2 15 -11 10 -10 -4 -19
-7 -22 -7 -2 0 -1 -6 2 -13 4 -10 -21 -13 -116 -12 -79 1 -120 -2 -120 -9 0
-6 -8 1 -18 16 -12 18 -22 24 -31 19z m76 -63 c-3 -8 -6 -5 -6 6 -1 11 2 17 5
13 3 -3 4 -12 1 -19z m30 -10 c-3 -7 -5 -2 -5 12 0 14 2 19 5 13 2 -7 2 -19 0
-25z m-60 0 c-3 -8 -6 -5 -6 6 -1 11 2 17 5 13 3 -3 4 -12 1 -19z m90 0 c-3
-8 -6 -5 -6 6 -1 11 2 17 5 13 3 -3 4 -12 1 -19z"/>
<path d="M486 500 c-2 -3 -2 -29 -1 -58 1 -29 -2 -55 -6 -58 -29 -17 4 -23 87
-15 13 1 14 81 1 81 -4 0 -10 -14 -14 -30 -6 -32 -22 -50 -24 -28 -7 79 -6 83
14 100 21 16 20 16 -17 15 -20 -1 -39 -3 -40 -7z"/>
<path d="M629 508 c0 -2 -3 -23 -5 -48 -2 -25 -6 -53 -8 -62 -4 -16 20 -46 28
-37 5 4 9 88 6 104 -1 6 -2 18 -1 28 1 9 -3 17 -8 17 -6 0 -11 -1 -12 -2z"/>
<path d="M267 466 c-17 -25 -17 -26 4 -26 17 0 19 -3 10 -14 -9 -11 -9 -25 -1
-55 12 -44 28 -51 59 -25 16 14 17 22 9 48 -6 17 -20 40 -33 51 -12 11 -24 26
-27 34 -3 9 -9 6 -21 -13z m50 -98 c-3 -8 -6 -5 -6 6 -1 11 2 17 5 13 3 -3 4
-12 1 -19z"/>
<path d="M709 463 c-4 -56 -9 -76 -19 -88 -9 -11 -9 -15 -1 -15 9 0 9 -5 1
-20 -9 -16 -8 -20 5 -20 23 0 30 4 29 17 -1 7 2 10 7 7 5 -3 9 0 9 5 0 6 7 11
15 11 9 0 15 9 16 23 0 12 2 32 5 44 3 16 -3 24 -28 32 -37 13 -38 13 -39 4z
m28 -75 c-3 -8 -6 -5 -6 6 -1 11 2 17 5 13 3 -3 4 -12 1 -19z"/>
<path d="M843 433 c-7 -2 -13 -12 -13 -22 0 -9 -7 -26 -15 -38 -13 -18 -13
-22 0 -33 8 -6 19 -9 24 -6 5 4 13 2 16 -4 5 -8 11 -7 21 1 7 6 12 15 9 19 -3
5 -1 20 5 35 15 40 -8 64 -47 48z m8 -36 c-10 -9 -11 -8 -5 6 3 10 9 15 12 12
3 -3 0 -11 -7 -18z"/>
<path d="M177 387 c-12 -18 -11 -25 1 -51 26 -52 47 -59 64 -21 24 53 -34 118
-65 72z m42 -57 c0 -10 -3 -8 -9 5 -12 27 -12 43 0 25 5 -8 9 -22 9 -30z"/>
<path d="M945 377 c-8 -20 -19 -38 -24 -42 -15 -9 -1 -37 16 -31 7 3 16 -1 20
-10 3 -8 11 -13 18 -10 8 3 16 -2 19 -10 8 -22 23 -9 46 38 15 31 17 45 8 55
-6 7 -13 11 -16 8 -3 -3 -11 0 -19 6 -7 6 -13 8 -13 4 0 -5 -9 0 -20 10 -19
17 -20 17 -35 -18z m25 -44 c-11 -17 -11 -17 -6 0 3 10 6 24 7 30 0 9 2 9 5 0
3 -7 0 -20 -6 -30z m43 -3 c-3 -11 -10 -23 -16 -27 -5 -3 -8 -2 -5 3 3 5 8 17
11 27 9 24 16 22 10 -3z"/>
<path d="M39 357 c-19 -11 -35 -21 -37 -22 -1 -1 14 -19 33 -39 25 -26 35 -47
35 -69 1 -29 2 -30 14 -14 7 9 18 17 23 17 16 0 45 37 35 44 -6 3 -12 0 -15
-6 -3 -10 -7 -10 -17 -1 -10 9 -9 15 4 28 19 19 19 17 7 48 -13 33 -42 38 -82
14z m56 -55 c-8 -8 -35 20 -35 37 1 12 5 11 21 -8 11 -13 17 -26 14 -29z"/>
<path d="M1130 342 c0 -5 -16 -27 -35 -48 -29 -32 -47 -74 -31 -74 15 0 36 14
36 25 0 6 9 20 19 29 11 10 17 24 14 32 -3 9 1 14 12 14 9 0 15 5 13 12 -5 15
-28 23 -28 10z"/>
</g>
</svg>
